<?xml version="1.0" encoding="utf-8"?>
<svg version="1.1" id="Layer_1" xmlns="http://www.w3.org/2000/svg" xmlns:xlink="http://www.w3.org/1999/xlink" x="0px" y="0px"
	 viewBox="0 0 1106 1650" enable-background="new 0 0 1106 1650" xml:space="preserve">
<g>
	<g>
		<path d="M664.521,182.943c4.458,18.598,17.938,25.574,47.425,70.419c-2.075-44.755-24.963-70.527-51.029-77.322
			C662.638,178.042,663.919,180.393,664.521,182.943z"/>
		<path d="M630.673,183.53c0.699-3.013,2.275-5.812,4.401-8.099c-27.754,5.878-52.596,32.977-53.691,81.282
			C596.971,231.318,626.717,200.63,630.673,183.53z"/>
		<path d="M909.635,764.078c-39.025,42.871-192.554,223.218-254.623,194.652c-50.044-23.015-125.228-15.297-174.978,50.002
			c-16.192,21.268-22.792,44.059-35.11,79.407c-5.817,16.667-24.372,13.605-18.485-5.929c7.858-26.105,20.219-64.292,43.416-95.431
			c39.151-52.561,133.464-77.771,192.47-52.77c27.098,11.48,49.792-28.091,49.792-86.72V340.797
			c-33.093,48.644-103.342,42.468-130.793-4.789v394.05c0,28.608-32.705,53.12-32.705,0V116.991c0-118.53-143.056-126.71-143.056,0
			v596.721c0,53.12-37.375,77.254-37.375,10.012V227.341c0-69.48-142.455-85.825-142.455,0v502.716
			c0,53.134-40.186,70.57-40.186,10.767V345.872c0-98.088-140.525-120.88-140.525,37.655v824.736
			c0,126.696,59.524,192.946,119.985,253.406c55.021,55.008,45.108,120.474,45.108,163.331h462.642
			c0-76.051,4.307-181.802,36.578-213.78c41.598-41.221,101.542-125.731,109.008-199.49
			c10.459-103.541,139.728-246.527,179.075-289.859c39.333-43.318,62.027-75.967,63.523-113.623
			C1063.178,752.304,967.355,700.708,909.635,764.078z"/>
	</g>
	<path d="M649.924,186.393c-0.183-0.773-1.709-1.811-2.442-1.709c-0.834,0.183-1.994,1.363-2.197,2.238
		c-6.26,33.616-67.455,70.431-58.74,120.165c13.079,74.222,124.174,68.144,124.56-11.496
		C713.872,260.451,657.837,219.418,649.924,186.393z M615.945,328.532c-13.639-15.165-16.427-40.413-4.11-56.847
		c3.479-5.005,11.394-2.299,11.048,3.784c-0.895,15.394,0.122,31.803,3.5,47.712C627.665,329.203,620.055,333.11,615.945,328.532z"
		/>
</g>
</svg>
