<?xml version="1.0" encoding="utf-8"?>
<!-- Svg Vector Icons : http://www.onlinewebfonts.com/icon -->
<!DOCTYPE svg PUBLIC "-//W3C//DTD SVG 1.1//EN" "http://www.w3.org/Graphics/SVG/1.1/DTD/svg11.dtd">
<svg version="1.1" xmlns="http://www.w3.org/2000/svg" xmlns:xlink="http://www.w3.org/1999/xlink" x="0px" y="0px" viewBox="0 0 1000 1000" enable-background="new 0 0 1000 1000" xml:space="preserve">
<metadata> Svg Vector Icons : http://www.onlinewebfonts.com/icon </metadata>
<g><g transform="translate(0.000000,511.000000) scale(0.100000,-0.100000)"><path d="M5033.1,5003.1c-592.7-27.2-1358.5-173-1842.4-351.8l-122.4-44.7l-116.6-281.8c-163.2-394.5-344-757.9-472.3-952.3c-81.6-122.4-108.8-180.7-108.8-233.2c0-221.5,334.3-561.6,730.7-740.4c70-33,122.4-66.1,112.7-73.8c-9.7-7.8-73.8-58.3-143.8-108.8c-70-52.5-178.8-138-242.9-192.4c-147.7-124.4-592.8-557.8-592.8-579.2c0-25.3,206-17.5,357.6,13.6c77.7,15.5,217.7,56.4,312.9,87.5c211.8,71.9,295.4,71.9,621.9,3.9c221.6-46.7,264.3-62.2,347.9-126.3c52.5-40.8,169.1-118.5,258.5-174.9c91.3-54.4,171-112.7,176.8-128.3c15.6-38.9-85.5-118.6-149.6-118.6c-31.1,0-106.9,27.2-169.1,60.3c-126.3,64.1-497.5,215.7-507.2,206c-9.7-9.7,149.6-120.5,237.1-163.3c42.8-21.4,130.2-54.4,194.3-71.9c157.4-46.7,359.5-157.4,645.2-355.7c279.9-194.3,380.9-295.4,371.2-371.2c-9.7-85.5-71.9-75.8-277.9,44.7c-104.9,60.3-260.4,143.8-347.9,188.5c-157.4,79.7-478.1,198.2-493.6,182.7C3802.9,710,4166.3,535,4195.5,535c58.3,0,643.3-330.4,736.6-413.9c52.5-48.6,54.4-112.7,7.8-157.4c-33-29.2-44.7-29.2-114.7-3.9c-44.7,15.5-143.8,64.1-223.5,106.9c-159.4,87.5-454.8,202.1-734.6,283.7c-101.1,29.2-198.2,58.3-213.8,64.1c-21.4,7.8-23.3,3.9-7.8-13.6c11.7-11.7,89.4-48.6,171-79.7c81.6-29.1,303.2-139.9,487.8-242.9c276-151.6,342-196.3,351.8-237.1c7.8-27.2,3.9-64.1-5.8-81.6c-36.9-60.3-116.6-44.7-369.3,66.1c-309,138-824,344-833.7,334.3c-17.5-17.5,311-194.3,458.7-246.8c151.6-54.4,252.7-124.4,252.7-176.8c0-42.8-97.2-114.7-155.5-114.7c-33,0-213.8,52.5-404.2,114.7c-188.5,64.1-468.4,147.7-620,184.6C2646.5,0.6,2493,76.4,2176.2,313.5c-334.3,248.8-326.5,244.9-532.5,182.7c-120.5-38.9-132.2-46.6-176.9-136c-452.8-894-369.3-1980.4,227.4-2940.4c145.8-237.1,334.3-478.1,639.4-820.1c151.6-171,314.8-361.5,361.5-425.6c116.6-157.4,171-340.1,171-565.5c0-176.8-21.4-248.8-99.1-355.6l-31.1-42.8h2682h2682l155.5,239c274,415.9,402.3,693.8,499.5,1067c75.8,291.5,89.4,719.1,29.2,1004.8c-54.4,264.3-204.1,658.8-388.7,1022.2c-138,272.1-396.5,719.1-425.6,736.6c-5.8,3.9-169.1-139.9-361.5-322.6c-379-359.6-588.9-540.3-791-682.1c-71.9-50.5-231.3-186.6-353.7-303.2c-221.6-211.8-225.4-213.8-627.7-417.9c-221.5-112.7-542.2-283.8-711.3-379c-359.5-202.1-583-283.7-1014.5-369.3c-351.8-70-666.6-87.5-1140.8-64.1c-351.8,17.5-414,33-390.6,97.2c17.5,46.6,44.7,62.2,122.4,64.1c108.8,1.9,11.7,33-110.8,35c-190.5,3.9-244.9,56.3-153.5,145.8c36.9,38.9,71.9,48.6,217.7,60.2c307.1,23.3,311,44.7,5.8,46.7c-297.3,1.9-328.4,9.7-328.4,93.3c0,62.2,101.1,169.1,188.5,198.2c40.8,13.6,209.9,31.1,375.1,40.8c235.2,13.6,353.7,31.1,534.4,77.7c522.8,136,802.6,256.5,822.1,355.6c9.7,44.7-71.9,42.8-413.9-5.8c-472.3-70-485.9-70-522.8-17.5c-40.8,60.2-38.9,120.5,5.8,161.3c21.4,19.4,171,85.5,336.2,147.7c165.2,62.2,404.2,161.3,532.5,219.6c126.3,58.3,283.7,116.6,347.9,128.3c118.6,21.4,128.3,21.4,489.8-44.7c334.3-62.2,619.9,60.2,1032,443.1c371.2,345.9,989.2,1168,1368.2,1819.1c58.3,101.1,161.3,276,225.4,388.7c377,649.1,629.7,1455.6,730.7,2330.2l29.2,241l-81.6,93.3c-213.8,241-588.9,513.1-965.9,703.5C6685,4905.9,5950.4,5043.9,5033.1,5003.1z"/></g></g>
</svg>