<?xml version="1.0" ?><svg data-name="Layer 1" id="Layer_1" viewBox="0 0 65 65" xmlns="http://www.w3.org/2000/svg"><title/><path d="M12.46,52.031H7.821A.954.954,0,0,1,7.146,50.4L19.383,38.164l3.471,3.472Zm-3.322-1.5h2.7l8.894-8.895-1.35-1.351Z" style="fill:#231f20"/><path d="M24.206,44.218a2.131,2.131,0,0,1-1.519-.629L17.43,38.332a2.149,2.149,0,0,1,0-3.037l1.423-1.423a.749.749,0,0,1,1.06,0l7.234,7.234a.748.748,0,0,1,0,1.06l-1.422,1.423A2.135,2.135,0,0,1,24.206,44.218Zm-4.823-8.755-.893.892a.651.651,0,0,0,0,.917l5.258,5.256a.662.662,0,0,0,.916,0l.893-.892Z" style="fill:#231f20"/><path d="M27.822,43.013a2.132,2.132,0,0,1-1.518-.63l-7.668-7.668a2.147,2.147,0,0,1,0-3.037l7.451-7.451a.75.75,0,0,1,1.06,1.06L19.7,32.738a.649.649,0,0,0,0,.916l7.668,7.669a.649.649,0,0,0,.916,0L46.053,23.551l-8.585-8.584-4.292,4.292A.75.75,0,1,1,32.115,18.2l4.822-4.822a.75.75,0,0,1,1.061,0l9.646,9.645a.752.752,0,0,1,0,1.061l-18.3,18.3A2.132,2.132,0,0,1,27.822,43.013Z" style="fill:#231f20"/><path d="M48.318,24.906a2.194,2.194,0,0,1-1.554-.642L36.756,14.255a2.2,2.2,0,0,1,0-3.109l.363-.363a2.2,2.2,0,0,1,3.109,0L50.236,20.791a2.2,2.2,0,0,1,0,3.109l-.363.363A2.19,2.19,0,0,1,48.318,24.906ZM38.673,11.639a.692.692,0,0,0-.493.2l-.364.364a.7.7,0,0,0,0,.987L47.824,23.2a.7.7,0,0,0,.988,0l.364-.364a.7.7,0,0,0,0-.987L39.167,11.843h0A.7.7,0,0,0,38.673,11.639Z" style="fill:#231f20"/><path d="M47.113,19.479a.748.748,0,0,1-.53-.22L41.76,14.437a.75.75,0,0,1,0-1.061l3.617-3.617a.772.772,0,0,1,1.06,0l4.823,4.823a.749.749,0,0,1,0,1.06l-3.616,3.617A.751.751,0,0,1,47.113,19.479Zm-3.762-5.573,3.762,3.762,2.556-2.556L45.907,11.35Z" style="fill:#231f20"/><path d="M52.538,16.872a2.665,2.665,0,0,1-1.89-.781l-5.719-5.72a2.676,2.676,0,0,1,0-3.78l.9-.9a2.676,2.676,0,0,1,3.78,0l5.72,5.72a2.676,2.676,0,0,1,0,3.78l-.9.9A2.667,2.667,0,0,1,52.538,16.872ZM47.716,6.411a1.171,1.171,0,0,0-.83.343l-.9.9a1.176,1.176,0,0,0,0,1.66l5.72,5.719a1.174,1.174,0,0,0,1.659,0l.9-.9a1.175,1.175,0,0,0,0-1.659l-5.72-5.72A1.172,1.172,0,0,0,47.716,6.411Z" style="fill:#231f20"/><path d="M38.322,29.059h0l-14.772-.034a.75.75,0,0,1,0-1.5h0l14.772.034a.75.75,0,0,1,0,1.5Z" style="fill:#231f20"/><path d="M28.928,23a.75.75,0,0,1-.531-1.28L29.6,20.509a.75.75,0,0,1,1.06,1.061l-1.206,1.206A.749.749,0,0,1,28.928,23Z" style="fill:#231f20"/><path d="M55.1,38.1H44.7a1.972,1.972,0,0,1-1.97-1.971V33.661A1.972,1.972,0,0,1,44.7,31.69H55.1a1.973,1.973,0,0,1,1.971,1.971v2.472A1.973,1.973,0,0,1,55.1,38.1ZM44.7,33.19a.471.471,0,0,0-.47.471v2.472a.471.471,0,0,0,.47.471H55.1a.472.472,0,0,0,.471-.471V33.661a.472.472,0,0,0-.471-.471Z" style="fill:#231f20"/><path d="M54.688,41.376H50.993a.75.75,0,0,1,0-1.5h3.7a.75.75,0,0,1,0,1.5Z" style="fill:#231f20"/><path d="M48.326,41.376H47.9a.75.75,0,0,1,0-1.5h.423a.75.75,0,0,1,0,1.5Z" style="fill:#231f20"/><path d="M49.9,54.409a.75.75,0,0,1-.75-.75v-4.93a.75.75,0,0,1,1.5,0v4.93A.75.75,0,0,1,49.9,54.409Z" style="fill:#231f20"/><path d="M52.362,51.944h-4.93a.75.75,0,0,1,0-1.5h4.93a.75.75,0,1,1,0,1.5Z" style="fill:#231f20"/><path d="M52.644,56.464H47.151a3.35,3.35,0,0,1-3.345-3.346V49.27a3.35,3.35,0,0,1,3.345-3.346h5.493a3.349,3.349,0,0,1,3.344,3.346v3.848A3.349,3.349,0,0,1,52.644,56.464Zm-5.493-9.04a1.848,1.848,0,0,0-1.845,1.846v3.848a1.848,1.848,0,0,0,1.845,1.846h5.493a1.847,1.847,0,0,0,1.844-1.846V49.27a1.847,1.847,0,0,0-1.844-1.846Z" style="fill:#231f20"/><path d="M56.448,60.088h-13.1a3.039,3.039,0,0,1-3.035-3.036V46.63a3.507,3.507,0,0,1,.576-1.93l2.85-4.351V37.311a.75.75,0,0,1,.75-.75h10.82a.75.75,0,0,1,.75.75v3.038l2.85,4.351a3.507,3.507,0,0,1,.576,1.93V57.052A3.039,3.039,0,0,1,56.448,60.088ZM45.237,38.061v2.511a.756.756,0,0,1-.123.412l-2.973,4.538a2.017,2.017,0,0,0-.33,1.108V57.052a1.537,1.537,0,0,0,1.535,1.536h13.1a1.537,1.537,0,0,0,1.535-1.536V46.63a2.017,2.017,0,0,0-.33-1.108L54.68,40.984a.756.756,0,0,1-.123-.412V38.061Z" style="fill:#231f20"/></svg>