<?xml version="1.0" ?><!DOCTYPE svg  PUBLIC '-//W3C//DTD SVG 1.1//EN'  'http://www.w3.org/Graphics/SVG/1.1/DTD/svg11.dtd'><svg enable-background="new 0 0 64 64" height="64px" id="Layer_1" version="1.1" viewBox="0 0 64 64" width="64px" xml:space="preserve" xmlns="http://www.w3.org/2000/svg" xmlns:xlink="http://www.w3.org/1999/xlink"><g><g><path d="M32,10.286c-14.818,0-26.831,12.013-26.831,26.833C5.169,51.937,17.182,63.95,32,63.95    c14.817,0,26.831-12.014,26.831-26.831C58.831,22.299,46.817,10.286,32,10.286z M32,60.535c-12.934,0-23.416-10.484-23.416-23.414    c0-12.935,10.482-23.417,23.416-23.417c12.931,0,23.415,10.482,23.415,23.417C55.415,50.051,44.931,60.535,32,60.535z" fill="#241F20"/></g><g><path d="M40.356,1.89v1.519c0,1.027-0.828,1.854-1.841,1.854h-0.644v2.976c-6.316-1.319-11.744,0-11.744,0V5.263    h-0.645c-1.012,0-1.839-0.827-1.839-1.854V1.89c0-1.026,0.828-1.84,1.839-1.84h13.032C39.528,0.05,40.356,0.863,40.356,1.89z" fill="#241F20"/></g><g><path d="M55.321,12.802l-8.27-5.779l0,0c-0.509-0.355-0.848-0.14-1.027,0.06l-0.147,0.213l-2.065,2.956    c0,0,5.213,2.036,9.636,6.732l2.079-2.972C56.001,13.324,55.385,12.849,55.321,12.802z" fill="#241F20"/></g><g><path d="M32,37.119V17.825c0,0,18.12-0.303,19.291,19.294C38.271,37.077,32,37.119,32,37.119z" fill="#241F20"/></g></g></svg>