<?xml version="1.0" ?><svg viewBox="0 0 512 512" xmlns="http://www.w3.org/2000/svg"><title/><g data-name="outline create" id="outline_create"><path d="M272,16H224v.29A28.04,28.04,0,0,0,200,44v8a28,28,0,0,0,56,0V44a27.838,27.838,0,0,0-2.707-12H272ZM240,44v8a12,12,0,0,1-24,0V44a12,12,0,0,1,24,0Z"/><path d="M439,416.625,408.346,209.742l38.438-61.5A8,8,0,0,0,440,136H400a8,8,0,0,0-6.784,3.76L355.566,200H272a8,8,0,0,0-6.656,12.438l16,24a8,8,0,0,0,5.772,3.513l62.56,6.951,9.583,64.691L307.056,416H289.062l14.876-119.008a7.991,7.991,0,0,0-1.282-5.43l-62.383-93.574L246.4,142.8l20.339,15.254,16.791,16.791a31.669,31.669,0,0,0,22.52,9.382,32.682,32.682,0,0,0,4.754-.349,31.714,31.714,0,0,0,23.529-16.489l40.707-75.6A8,8,0,0,0,368,80H336a8,8,0,0,0-6.656,3.562l-26.587,39.881-1.1-1.1L279.029,99.715A39.742,39.742,0,0,0,250.745,88H197.727a23.861,23.861,0,0,0-19.953,10.622l-62.44,44.837a8.005,8.005,0,0,0-3.187,4.967l-16,82.043A8,8,0,0,0,104,240h24a8,8,0,0,0,7.692-5.8l15.261-53.413,13.462-10.1-4.322,28.1L168,200l-7.982-.532-7.847,117.7L89.53,403.294a8,8,0,0,0,.813,10.363L92.686,416H80a40,40,0,0,0,0,80H432a40,40,0,0,0,7-79.375ZM406.135,304H374.31l-13.038-88H393.1Zm2.37,16,14.223,96H390.9L376.68,320Zm-4.071-168h21.132l-30,48H374.434ZM292.589,224.46,286.948,216H345.1l2.153,14.534Zm70.759,114.732L374.727,416H324.944ZM272.938,416h-8.324l8.253-111.409a8,8,0,0,0-2-5.906l-24.446-27.5,15.612-11.709,25.658,38.487ZM194.647,272H171.218l4.267-64H206.4Zm28.018-64h5.054l25.427,38.141-17.39,13.042-18.639-20.968Zm87.991-67.562L340.281,96h14.325l-34.357,63.806a16,16,0,0,1-25.4,3.728L283.314,152,296,139.314l2.343,2.343a8,8,0,0,0,12.313-1.219ZM197.727,104h53.018a23.849,23.849,0,0,1,16.971,7.029L284.687,128l-13.438,13.437L244.8,121.6a8,8,0,0,0-12.751,5.517L224.84,192H177.325l12.5-81.217A7.957,7.957,0,0,1,197.727,104ZM139.2,169.6a8,8,0,0,0-2.892,4.2L121.966,224h-8.255l13.533-69.4,44.57-32-3.92,25.48Zm27.27,155.106a8.006,8.006,0,0,0,1.512-4.174L170.151,288h21.558l-8.14,44.334-71.881,80.041-5.2-5.2Zm30.512,16.639a7.986,7.986,0,0,0,1.916-3.9l14.554-79.269,43.208,48.609L248.57,416H129.937ZM432,480H80a24,24,0,0,1,0-48H432a24,24,0,0,1,0,48Z"/><circle cx="80" cy="456" r="8"/><circle cx="112" cy="456" r="8"/><circle cx="144" cy="456" r="8"/><circle cx="176" cy="456" r="8"/><circle cx="208" cy="456" r="8"/><circle cx="240" cy="456" r="8"/><circle cx="272" cy="456" r="8"/><circle cx="304" cy="456" r="8"/><circle cx="336" cy="456" r="8"/><circle cx="368" cy="456" r="8"/><circle cx="400" cy="456" r="8"/><circle cx="432" cy="456" r="8"/></g></svg>