<?xml version="1.0" ?><svg id="Layer_1" style="enable-background:new 0 0 1024 1024;" version="1.1" viewBox="0 0 1024 1024" xml:space="preserve" xmlns="http://www.w3.org/2000/svg" xmlns:xlink="http://www.w3.org/1999/xlink"><g id="XMLID_17_"><path d="M359.9,168.4c0-61.1,49.8-110.9,110.9-110.9c61.2,0,110.9,49.8,110.9,110.9c0,61.2-49.7,110.9-110.9,110.9   C409.7,279.3,359.9,229.6,359.9,168.4z" id="XMLID_166_"/><path d="M720.5,643.8v138.7h-154v146.6c0,22-12.8,37.4-31.1,37.4H407.5c-20,0-39-18.2-39-37.4V782.5h-65v-363   c0-60.1,48.9-109,109-109h110c60.1,0,109,48.9,109,109v88.3c16.5,7.1,31.4,17.3,45.2,31.1C705,567.1,720.5,604.4,720.5,643.8z" id="XMLID_167_"/></g><g id="XMLID_1_"/><g id="XMLID_2_"/><g id="XMLID_3_"/><g id="XMLID_4_"/><g id="XMLID_5_"/></svg>